<svg width="144" height="25" viewBox="0 0 144 25" fill="none" xmlns="http://www.w3.org/2000/svg">
<g clip-path="url(#clip0_766_48918)">
<path d="M41.4344 25.0001C39.8815 25.0001 38.4278 24.5882 37.0768 23.7678C35.7257 22.9458 34.6448 21.8372 33.8341 20.4406C33.0235 19.0455 32.6182 17.5479 32.6182 15.9478C32.6182 14.3476 33.0235 12.8517 33.8341 11.455C34.6448 10.0584 35.7257 8.94981 37.0768 8.12776C38.4278 7.30572 39.8798 6.89551 41.4344 6.89551C42.8539 6.89551 44.148 7.22758 45.3184 7.89173C46.4888 8.55588 47.4459 9.42351 48.1899 10.493C48.9321 11.5625 49.4172 12.671 49.6419 13.8202H45.0482C44.9586 13.5061 44.7666 13.1398 44.4735 12.7231C44.1805 12.3064 43.7752 11.9417 43.2576 11.6259C42.7399 11.3101 42.1311 11.1522 41.4328 11.1522C40.6449 11.1522 39.9303 11.3541 39.2873 11.7594C38.646 12.1647 38.1397 12.7329 37.7669 13.4654C37.3958 14.1979 37.2102 15.0248 37.2102 15.9478C37.2102 16.8708 37.3958 17.6993 37.7669 18.4302C38.1381 19.1627 38.646 19.7308 39.2873 20.1362C39.9287 20.5415 40.6433 20.745 41.4328 20.745C42.1311 20.745 42.7383 20.5871 43.2576 20.2713C43.7752 19.9555 44.1805 19.5908 44.4735 19.1741C44.7666 18.7574 44.957 18.3911 45.0482 18.077H49.6419C49.4172 19.2246 48.9321 20.3348 48.1899 21.4042C47.4476 22.4737 46.4888 23.3413 45.3184 24.0055C44.148 24.6696 42.8522 25.0017 41.4344 25.0017" fill="white"/>
<path d="M60.1122 25.0001C58.5592 25.0001 57.1056 24.5882 55.7545 23.7678C54.4034 22.9458 53.3225 21.8372 52.5119 20.4406C51.7012 19.0439 51.2959 17.5479 51.2959 15.9478C51.2959 14.3477 51.7012 12.8517 52.5119 11.455C53.3225 10.0584 54.4034 8.94981 55.7545 8.12776C57.1056 7.30572 58.5576 6.89551 60.1122 6.89551C61.6667 6.89551 63.1187 7.30735 64.4698 8.12776C65.8209 8.94981 66.9018 10.0584 67.7124 11.455C68.5231 12.8517 68.9284 14.3493 68.9284 15.9478C68.9284 17.5463 68.5231 19.0439 67.7124 20.4406C66.9018 21.8372 65.8209 22.9458 64.4698 23.7678C63.1187 24.5899 61.6667 25.0001 60.1122 25.0001ZM60.1122 20.745C60.9 20.745 61.6146 20.5415 62.2576 20.1362C62.899 19.7308 63.4052 19.1627 63.778 18.4302C64.1491 17.6993 64.3347 16.8708 64.3347 15.9478C64.3347 15.0248 64.1491 14.1979 63.778 13.4654C63.4068 12.7345 62.9006 12.1647 62.2576 11.7594C61.6163 11.3541 60.9016 11.1522 60.1122 11.1522C59.3227 11.1522 58.6097 11.3541 57.9667 11.7594C57.3253 12.1647 56.8191 12.7329 56.4463 13.4654C56.0752 14.1979 55.8896 15.0248 55.8896 15.9478C55.8896 16.8708 56.0752 17.6993 56.4463 18.4302C56.8175 19.1627 57.3253 19.7308 57.9667 20.1362C58.608 20.5415 59.3227 20.745 60.1122 20.745Z" fill="white"/>
<path d="M94.9523 10.2405C94.446 9.13685 93.7314 8.30503 92.8068 7.74181C91.8839 7.17859 90.7916 6.89697 89.53 6.89697C88.6966 6.89697 87.9136 7.05487 87.1827 7.36904C86.4502 7.68484 85.8251 8.06737 85.3091 8.51665C84.9868 8.79663 84.7264 9.06685 84.5261 9.33056C84.3536 9.07173 84.1403 8.8064 83.8897 8.53456C83.4843 8.09505 82.9325 7.71251 82.2342 7.38695C81.5358 7.06138 80.7138 6.89697 79.768 6.89697C78.8223 6.89697 77.9156 7.13952 77.1847 7.62298C76.4522 8.10807 75.9296 8.57525 75.6138 9.02453H75.4446L74.7023 7.33486H71.2578V24.5604H75.8515V14.3947C75.8515 13.7191 75.9703 13.1396 76.2064 12.6546C76.4424 12.1711 76.7631 11.7983 77.1684 11.5395C77.5737 11.2807 78.0246 11.1505 78.5195 11.1505C79.0144 11.1505 79.4653 11.2807 79.8706 11.5395C80.2759 11.7983 80.5966 12.1711 80.8326 12.6546C81.0687 13.1396 81.1875 13.7191 81.1875 14.3947V24.5604H85.7812V14.3947C85.7812 13.7191 85.9 13.1396 86.1361 12.6546C86.3721 12.1711 86.6928 11.7983 87.0981 11.5395C87.5034 11.2807 87.9527 11.1505 88.4492 11.1505C88.9457 11.1505 89.3949 11.2807 89.8003 11.5395C90.2056 11.7983 90.5263 12.1711 90.7623 12.6546C90.9983 13.1396 91.1172 13.7191 91.1172 14.3947V24.5604H95.7109V14.2254C95.7109 12.6725 95.4569 11.3442 94.9507 10.2405H94.9523Z" fill="white"/>
<path d="M122.478 10.2405C121.972 9.13685 121.257 8.30503 120.333 7.74181C119.41 7.17859 118.318 6.89697 117.056 6.89697C116.223 6.89697 115.44 7.05487 114.709 7.36904C113.976 7.68484 113.351 8.06737 112.834 8.51665C112.511 8.79663 112.251 9.06685 112.051 9.33056C111.878 9.07173 111.665 8.8064 111.414 8.53456C111.009 8.09505 110.457 7.71251 109.759 7.38695C109.06 7.06138 108.238 6.89697 107.292 6.89697C106.347 6.89697 105.44 7.13952 104.709 7.62298C103.977 8.10807 103.452 8.57525 103.138 9.02453H102.969L102.227 7.33486H98.7822V24.5604H103.376V14.3947C103.376 13.7191 103.495 13.1396 103.731 12.6546C103.967 12.1711 104.287 11.7983 104.693 11.5395C105.098 11.2807 105.549 11.1505 106.044 11.1505C106.539 11.1505 106.99 11.2807 107.395 11.5395C107.8 11.7983 108.121 12.1711 108.357 12.6546C108.593 13.1396 108.712 13.7191 108.712 14.3947V24.5604H113.306V14.3947C113.306 13.7191 113.424 13.1396 113.66 12.6546C113.896 12.1711 114.217 11.7983 114.623 11.5395C115.028 11.2807 115.477 11.1505 115.974 11.1505C116.47 11.1505 116.919 11.2807 117.325 11.5395C117.73 11.7983 118.051 12.1711 118.287 12.6546C118.523 13.1396 118.642 13.7191 118.642 14.3947V24.5604H123.235V14.2254C123.235 12.6725 122.981 11.3442 122.475 10.2405H122.478Z" fill="white"/>
<path d="M128.508 5.14048C127.787 5.14048 127.18 4.89305 126.685 4.3982C126.19 3.90334 125.942 3.29454 125.942 2.57341C125.942 2.09972 126.055 1.66672 126.281 1.27279C126.506 0.878857 126.815 0.569572 127.21 0.343306C127.604 0.118667 128.037 0.00634766 128.511 0.00634766C129.232 0.00634766 129.839 0.253776 130.336 0.748632C130.831 1.24349 131.078 1.85229 131.078 2.57179C131.078 3.04548 130.966 3.47848 130.74 3.87241C130.515 4.26634 130.204 4.57726 129.81 4.80189C129.416 5.02653 128.983 5.13885 128.509 5.13885M126.211 7.3364H130.805V24.562H126.211V7.3364Z" fill="white"/>
<path d="M141.479 24.9998C140.352 24.9998 139.351 24.7458 138.472 24.2396C137.593 23.7333 136.906 23.0073 136.411 22.0616C135.916 21.1158 135.669 20.0007 135.669 18.718V11.4222H133.001V7.6733H134.183C134.836 7.6733 135.342 7.49912 135.703 7.14914C136.063 6.80079 136.244 6.29942 136.244 5.64666V3.01123H140.263V7.33471H143.81V11.4222H140.263V18.2443C140.263 19.055 140.471 19.6622 140.888 20.0675C141.304 20.4728 141.884 20.6763 142.628 20.6763C143.1 20.6763 143.494 20.5982 143.81 20.4403V24.6286C143.517 24.7409 143.173 24.8305 142.779 24.8988C142.385 24.9672 141.952 24.9998 141.479 24.9998Z" fill="white"/>
<path d="M6.08152 15.0442C6.08152 13.3648 4.72013 12.0034 3.04076 12.0034C1.36139 12.0034 0 13.3648 0 15.0442V21.9461C0 23.6255 1.36139 24.9869 3.04076 24.9869C4.72013 24.9869 6.08152 23.6255 6.08152 21.9461V15.0442Z" fill="#F16237"/>
<path d="M13.3989 12.0212C13.3989 10.3419 12.0375 8.98047 10.3581 8.98047C8.67878 8.98047 7.31738 10.3419 7.31738 12.0212V21.9525C7.31738 23.6319 8.67878 24.9933 10.3581 24.9933C12.0375 24.9933 13.3989 23.6319 13.3989 21.9525V12.0212Z" fill="#4DC1EF"/>
<path d="M20.6762 13.0696C20.6762 11.3902 19.3149 10.0288 17.6355 10.0288C15.9561 10.0288 14.5947 11.3902 14.5947 13.0696V21.9526C14.5947 23.6319 15.9561 24.9933 17.6355 24.9933C19.3149 24.9933 20.6762 23.6319 20.6762 21.9526V13.0696Z" fill="#FAA018"/>
<path d="M27.9809 9.7556C27.9809 8.07624 26.6195 6.71484 24.9402 6.71484C23.2608 6.71484 21.8994 8.07624 21.8994 9.7556V21.9528C21.8994 23.6322 23.2608 24.9936 24.9402 24.9936C26.6195 24.9936 27.9809 23.6322 27.9809 21.9528V9.7556Z" fill="#8BC639"/>
<path d="M3.03261 11.2547C4.67782 11.2547 6.01152 9.92098 6.01152 8.27578C6.01152 6.63058 4.67782 5.29688 3.03261 5.29688C1.38741 5.29688 0.0537109 6.63058 0.0537109 8.27578C0.0537109 9.92098 1.38741 11.2547 3.03261 11.2547Z" fill="#F16237"/>
<path d="M10.3461 8.22392C11.9913 8.22392 13.325 6.89022 13.325 5.24502C13.325 3.59981 11.9913 2.26611 10.3461 2.26611C8.70089 2.26611 7.36719 3.59981 7.36719 5.24502C7.36719 6.89022 8.70089 8.22392 10.3461 8.22392Z" fill="#4DC1EF"/>
<path d="M17.6322 9.26689C19.2774 9.26689 20.6111 7.93319 20.6111 6.28799C20.6111 4.64278 19.2774 3.30908 17.6322 3.30908C15.987 3.30908 14.6533 4.64278 14.6533 6.28799C14.6533 7.93319 15.987 9.26689 17.6322 9.26689Z" fill="#FAA018"/>
<path d="M24.9525 5.95781C26.5977 5.95781 27.9314 4.62411 27.9314 2.9789C27.9314 1.3337 26.5977 0 24.9525 0C23.3073 0 21.9736 1.3337 21.9736 2.9789C21.9736 4.62411 23.3073 5.95781 24.9525 5.95781Z" fill="#8BC639"/>
</g>
<defs>
<clipPath id="clip0_766_48918">
<rect width="143.808" height="25" fill="white"/>
</clipPath>
</defs>
</svg>
